<?xml version="1.0" encoding="UTF-8" standalone="no"?>
<!DOCTYPE svg PUBLIC "-//W3C//DTD SVG 1.1//EN" "http://www.w3.org/Graphics/SVG/1.1/DTD/svg11.dtd">
<svg width="100%" height="100%" viewBox="0 0 1024 1024" version="1.1" xmlns="http://www.w3.org/2000/svg" xmlns:xlink="http://www.w3.org/1999/xlink" xml:space="preserve" xmlns:serif="http://www.serif.com/" style="fill-rule:evenodd;clip-rule:evenodd;stroke-miterlimit:1.5;">
    <g id="HSV">
        <g transform="matrix(2.73577,0,0,2.73577,-888.713,-888.713)">
            <circle cx="512" cy="512" r="174.402"/>
        </g>
        <g transform="matrix(2.08999,0,0,2.08999,-558.077,-558.077)">
            <circle cx="512" cy="512" r="174.402" style="fill:white;"/>
        </g>
        <g transform="matrix(1.98344,0,0,1.98344,-503.522,-503.522)">
            <circle cx="512" cy="512" r="174.402"/>
        </g>
        <g>
            <clipPath id="_clip1">
                <circle cx="512" cy="512" r="312.11"/>
            </clipPath>
            <g clip-path="url(#_clip1)">
                <g transform="matrix(2.73577,0,0,2.73577,-888.713,-888.713)">
                    <circle cx="512" cy="512" r="174.402"/>
                </g>
                <g transform="matrix(0.461995,-0.266733,0.5,0.866025,-187.405,324.595)">
                    <g transform="matrix(1.67441,-2.22045e-16,8.88178e-16,5.37359,48.2356,-2240.88)">
                        <rect x="0" y="433.765" width="1024" height="156.469" style="fill:white;stroke:black;stroke-width:0.32px;"/>
                    </g>
                    <g transform="matrix(2.1677,-0.309855,0.580833,1.15639,-467.342,74.7746)">
                        <rect x="359.871" y="372.95" width="304.258" height="304.258" style="fill:rgb(0,111,255);"/>
                    </g>
                </g>
            </g>
        </g>
    </g>
</svg>
