<?xml version="1.0" encoding="UTF-8" standalone="no"?>
<!DOCTYPE svg PUBLIC "-//W3C//DTD SVG 1.1//EN" "http://www.w3.org/Graphics/SVG/1.1/DTD/svg11.dtd">
<svg width="100%" height="100%" viewBox="0 0 1024 1024" version="1.1" xmlns="http://www.w3.org/2000/svg" xmlns:xlink="http://www.w3.org/1999/xlink" xml:space="preserve" xmlns:serif="http://www.serif.com/" style="fill-rule:evenodd;clip-rule:evenodd;stroke-miterlimit:1.5;">
    <g id="SVW">
        <g transform="matrix(2.73577,0,0,2.73577,-888.713,-888.713)">
            <circle cx="512" cy="512" r="174.402"/>
        </g>
        <g transform="matrix(2.08999,0,0,2.08999,-558.077,-558.077)">
            <circle cx="512" cy="512" r="174.402" style="fill:white;"/>
        </g>
        <g transform="matrix(1.85788,0,0,1.85788,-439.235,-439.235)">
            <circle cx="512" cy="512" r="174.402" style="fill:rgb(56,145,45);"/>
        </g>
        <g>
            <clipPath id="_clip1">
                <ellipse cx="512" cy="512" rx="243.345" ry="242.306"/>
            </clipPath>
            <g clip-path="url(#_clip1)">
                <g transform="matrix(1.64802,0,0,1.64802,-331.786,-331.786)">
                    <circle cx="512" cy="512" r="174.402" style="fill:white;"/>
                </g>
                <g transform="matrix(1,0,0,2.38839,0,-1606.74)">
                    <path d="M512,512L1770.05,1157.27L-746.046,1157.27L512,512Z" style="fill:white;"/>
                </g>
                <path d="M338.713,301.165L575.388,754.306L755.345,386.691" style="fill:none;stroke:rgb(56,145,45);stroke-width:63.24px;"/>
            </g>
        </g>
    </g>
</svg>
