<?xml version="1.0" encoding="UTF-8" standalone="no"?>
<!DOCTYPE svg PUBLIC "-//W3C//DTD SVG 1.1//EN" "http://www.w3.org/Graphics/SVG/1.1/DTD/svg11.dtd">
<svg width="100%" height="100%" viewBox="0 0 780 210" version="1.1" xmlns="http://www.w3.org/2000/svg" xmlns:xlink="http://www.w3.org/1999/xlink" xml:space="preserve" xmlns:serif="http://www.serif.com/" style="fill-rule:evenodd;clip-rule:evenodd;stroke-linejoin:round;stroke-miterlimit:2;">
    <g transform="matrix(1,0,0,1,-285.436,-571.323)">
        <path d="M465.436,574.779L456.508,625.467L376.444,625.467L371.548,653.691L429.148,653.691L420.508,701.787L362.908,701.787L349.372,778.683L285.436,778.683L321.436,574.779L465.436,574.779ZM535.132,574.779L514.972,689.691C514.396,692.763 514.108,695.931 514.108,699.195C514.108,705.723 515.836,710.859 519.292,714.603C522.748,718.347 528.22,720.219 535.708,720.219C544.924,720.219 552.22,717.483 557.596,712.011C562.972,706.539 566.524,699.099 568.252,689.691L588.412,574.779L652.06,574.779L631.9,689.691C628.444,709.659 621.58,726.459 611.308,740.091C601.036,753.723 588.46,763.899 573.58,770.619C558.7,777.339 542.332,780.699 524.476,780.699C501.628,780.699 483.388,774.699 469.756,762.699C456.124,750.699 449.308,733.563 449.308,711.291C449.308,704.187 449.98,696.987 451.324,689.691L471.484,574.779L535.132,574.779ZM716.86,780.699C691.9,780.699 671.98,775.707 657.1,765.723C642.22,755.739 634.78,741.147 634.78,721.947C634.78,720.027 634.972,717.147 635.356,713.307L703.324,713.307C702.748,719.259 703.66,723.675 706.06,726.555C708.46,729.435 712.444,730.875 718.012,730.875C721.468,730.875 724.348,730.011 726.652,728.283C728.956,726.555 730.108,724.059 730.108,720.795C730.108,716.187 727.852,712.347 723.34,709.275C718.828,706.203 711.58,702.555 701.596,698.331C690.652,693.723 681.676,689.307 674.668,685.083C667.66,680.859 661.564,675.099 656.38,667.803C651.196,660.507 648.604,651.387 648.604,640.443C648.604,626.043 652.204,613.611 659.404,603.147C666.604,592.683 676.636,584.763 689.5,579.387C702.364,574.011 717.052,571.323 733.564,571.323C748.348,571.323 761.548,573.627 773.164,578.235C784.78,582.843 793.9,589.515 800.524,598.251C807.148,606.987 810.46,617.307 810.46,629.211C810.46,630.747 810.268,633.435 809.884,637.275L741.052,637.275C741.436,634.971 741.628,633.435 741.628,632.667C741.628,629.019 740.572,626.187 738.46,624.171C736.348,622.155 733.468,621.147 729.82,621.147C726.556,621.147 723.868,622.107 721.756,624.027C719.644,625.947 718.588,628.443 718.588,631.515C718.588,635.739 720.796,639.435 725.212,642.603C729.628,645.771 736.636,649.659 746.236,654.267C757.18,659.451 766.252,664.347 773.452,668.955C780.652,673.563 786.844,679.659 792.028,687.243C797.212,694.827 799.804,704.091 799.804,715.035C799.804,727.515 796.492,738.747 789.868,748.731C783.244,758.715 773.692,766.539 761.212,772.203C748.732,777.867 733.948,780.699 716.86,780.699ZM887.356,780.699C862.396,780.699 842.476,775.707 827.596,765.723C812.716,755.739 805.276,741.147 805.276,721.947C805.276,720.027 805.468,717.147 805.852,713.307L873.82,713.307C873.244,719.259 874.156,723.675 876.556,726.555C878.956,729.435 882.94,730.875 888.508,730.875C891.964,730.875 894.844,730.011 897.148,728.283C899.452,726.555 900.604,724.059 900.604,720.795C900.604,716.187 898.348,712.347 893.836,709.275C889.324,706.203 882.076,702.555 872.092,698.331C861.148,693.723 852.172,689.307 845.164,685.083C838.156,680.859 832.06,675.099 826.876,667.803C821.692,660.507 819.1,651.387 819.1,640.443C819.1,626.043 822.7,613.611 829.9,603.147C837.1,592.683 847.132,584.763 859.996,579.387C872.86,574.011 887.548,571.323 904.06,571.323C918.844,571.323 932.044,573.627 943.66,578.235C955.276,582.843 964.396,589.515 971.02,598.251C977.644,606.987 980.956,617.307 980.956,629.211C980.956,630.747 980.764,633.435 980.38,637.275L911.548,637.275C911.932,634.971 912.124,633.435 912.124,632.667C912.124,629.019 911.068,626.187 908.956,624.171C906.844,622.155 903.964,621.147 900.316,621.147C897.052,621.147 894.364,622.107 892.252,624.027C890.14,625.947 889.084,628.443 889.084,631.515C889.084,635.739 891.292,639.435 895.708,642.603C900.124,645.771 907.132,649.659 916.732,654.267C927.676,659.451 936.748,664.347 943.948,668.955C951.148,673.563 957.34,679.659 962.524,687.243C967.708,694.827 970.3,704.091 970.3,715.035C970.3,727.515 966.988,738.747 960.364,748.731C953.74,758.715 944.188,766.539 931.708,772.203C919.228,777.867 904.444,780.699 887.356,780.699ZM1064.48,574.779L1028.48,778.683L964.54,778.683L1000.54,574.779L1064.48,574.779Z" style="fill:white;"/>
    </g>
</svg>
