<?xml version="1.0" encoding="UTF-8" standalone="no"?>
<!DOCTYPE svg PUBLIC "-//W3C//DTD SVG 1.1//EN" "http://www.w3.org/Graphics/SVG/1.1/DTD/svg11.dtd">
<svg width="100%" height="100%" viewBox="0 0 1024 1024" version="1.1" xmlns="http://www.w3.org/2000/svg" xmlns:xlink="http://www.w3.org/1999/xlink" xml:space="preserve" xmlns:serif="http://www.serif.com/" style="fill-rule:evenodd;clip-rule:evenodd;stroke-miterlimit:1.5;">
    <g id="HOF">
        <g transform="matrix(2.73577,0,0,2.73577,-888.713,-888.713)">
            <circle cx="512" cy="512" r="174.402"/>
        </g>
        <g transform="matrix(2.08999,0,0,2.08999,-558.077,-558.077)">
            <circle cx="512" cy="512" r="174.402" style="fill:white;"/>
        </g>
        <g>
            <clipPath id="_clip1">
                <circle cx="512" cy="512" r="323.395"/>
            </clipPath>
            <g clip-path="url(#_clip1)">
                <g transform="matrix(2.73577,0,0,2.73577,-888.713,-888.713)">
                    <circle cx="512" cy="512" r="174.402"/>
                </g>
                <g transform="matrix(0.866025,-0.5,0.5,0.866025,-187.405,324.595)">
                    <g transform="matrix(1,-1.11022e-16,1.70125e-16,2.6899,1.99676e-13,-1075.67)">
                        <rect x="0" y="433.765" width="1024" height="156.469" style="fill:rgb(0,147,255);stroke:black;stroke-width:0.6px;"/>
                    </g>
                    <g transform="matrix(1,-1.11022e-16,2.22045e-16,2.6899,48.2356,-656.873)">
                        <rect x="0" y="433.765" width="1024" height="156.469" style="fill:white;stroke:black;stroke-width:0.6px;"/>
                    </g>
                </g>
            </g>
        </g>
    </g>
</svg>
