<?xml version="1.0" encoding="UTF-8" standalone="no"?>
<!DOCTYPE svg PUBLIC "-//W3C//DTD SVG 1.1//EN" "http://www.w3.org/Graphics/SVG/1.1/DTD/svg11.dtd">
<svg width="100%" height="100%" viewBox="0 0 391 463" version="1.1" xmlns="http://www.w3.org/2000/svg" xmlns:xlink="http://www.w3.org/1999/xlink" xml:space="preserve" xmlns:serif="http://www.serif.com/" style="fill-rule:evenodd;clip-rule:evenodd;stroke-linejoin:round;stroke-miterlimit:2;">
    <g transform="matrix(1,0,0,1,-2453.24,-1043.2)">
        <path d="M2751.44,1441.52L2642.08,1282.01L2697,1244.35L2805.27,1402.26L2831.95,1382.8L2843.75,1505.22L2734.07,1454.19L2751.44,1441.52ZM2545.46,1382.68L2520.96,1376.32C2479.53,1341.15 2453.24,1288.77 2453.24,1230.31C2453.24,1224.81 2453.47,1219.36 2453.93,1213.97L2469.91,1185.35L2545.57,1207.26L2579.34,1311.19L2545.46,1382.68ZM2599.21,1318.65L2637.1,1318.65L2702.16,1413.54C2684.24,1419.05 2665.2,1422.02 2645.48,1422.02C2623.06,1422.02 2601.53,1418.18 2581.52,1411.13L2563.38,1394.28L2599.21,1318.65ZM2731.33,1250.53L2744.51,1209.96L2822.39,1187.41L2837,1213.57C2837.48,1219.09 2837.72,1224.67 2837.72,1230.31C2837.72,1274.36 2822.79,1314.95 2797.71,1347.34L2731.33,1250.53ZM2475.47,1164.93L2475.83,1140.14C2501.85,1091.6 2548.2,1055.5 2603.51,1043.2L2634.63,1051.06L2634.63,1130.42L2555.32,1188.05L2475.47,1164.93ZM2738.06,1189.81L2655.79,1130.03L2655.79,1051.2L2687.45,1043.2C2743.92,1055.76 2791.06,1093.12 2816.75,1143.21L2817.09,1166.92L2738.06,1189.81Z" style="fill:white;"/>
    </g>
</svg>
