<?xml version="1.0" encoding="UTF-8" standalone="no"?>
<!DOCTYPE svg PUBLIC "-//W3C//DTD SVG 1.1//EN" "http://www.w3.org/Graphics/SVG/1.1/DTD/svg11.dtd">
<svg width="100%" height="100%" viewBox="0 0 1024 1024" version="1.1" xmlns="http://www.w3.org/2000/svg" xmlns:xlink="http://www.w3.org/1999/xlink" xml:space="preserve" xmlns:serif="http://www.serif.com/" style="fill-rule:evenodd;clip-rule:evenodd;stroke-linejoin:round;stroke-miterlimit:2;">
    <g id="FCB">
        <g transform="matrix(2.73577,0,0,2.73577,-888.713,-888.713)">
            <circle cx="512" cy="512" r="174.402"/>
        </g>
        <g transform="matrix(1.98344,0,0,1.98344,-503.522,-503.522)">
            <circle cx="512" cy="512" r="174.402" style="fill:rgb(204,37,37);"/>
        </g>
        <g transform="matrix(0.823474,0,0,0.823474,90.3811,90.3811)">
            <clipPath id="_clip1">
                <circle cx="512" cy="512" r="345.916"/>
            </clipPath>
            <g clip-path="url(#_clip1)">
                <g transform="matrix(1.13163,0,0,1.13163,-67.3944,-67.3944)">
                    <g transform="matrix(0.587079,-0.587079,0.587079,0.587079,-192.374,523.443)">
                        <rect x="89.002" y="850.473" width="260.321" height="260.321" style="fill:rgb(0,177,255);"/>
                        <g transform="matrix(1,0,0,1,260.321,-260.321)">
                            <rect x="89.002" y="850.473" width="260.321" height="260.321" style="fill:rgb(0,177,255);"/>
                        </g>
                        <g transform="matrix(1,0,0,1,0,-260.321)">
                            <rect x="89.002" y="850.473" width="260.321" height="260.321" style="fill:white;"/>
                        </g>
                        <g transform="matrix(1,0,0,1,260.321,0)">
                            <rect x="89.002" y="850.473" width="260.321" height="260.321" style="fill:white;"/>
                        </g>
                    </g>
                    <g transform="matrix(0.587079,-0.587079,0.587079,0.587079,-498.031,217.785)">
                        <rect x="89.002" y="850.473" width="260.321" height="260.321" style="fill:rgb(0,177,255);"/>
                        <g transform="matrix(1,0,0,1,260.321,-260.321)">
                            <rect x="89.002" y="850.473" width="260.321" height="260.321" style="fill:rgb(0,177,255);"/>
                        </g>
                        <g transform="matrix(1,0,0,1,0,-260.321)">
                            <rect x="89.002" y="850.473" width="260.321" height="260.321" style="fill:white;"/>
                        </g>
                        <g transform="matrix(1,0,0,1,260.321,0)">
                            <rect x="89.002" y="850.473" width="260.321" height="260.321" style="fill:white;"/>
                        </g>
                    </g>
                    <g transform="matrix(0.587079,-0.587079,0.587079,0.587079,113.283,217.785)">
                        <rect x="89.002" y="850.473" width="260.321" height="260.321" style="fill:rgb(0,177,255);"/>
                        <g transform="matrix(1,0,0,1,260.321,-260.321)">
                            <rect x="89.002" y="850.473" width="260.321" height="260.321" style="fill:rgb(0,177,255);"/>
                        </g>
                        <g transform="matrix(1,0,0,1,0,-260.321)">
                            <rect x="89.002" y="850.473" width="260.321" height="260.321" style="fill:white;"/>
                        </g>
                        <g transform="matrix(1,0,0,1,260.321,0)">
                            <rect x="89.002" y="850.473" width="260.321" height="260.321" style="fill:white;"/>
                        </g>
                    </g>
                    <g transform="matrix(0.587079,-0.587079,0.587079,0.587079,-192.374,-87.8719)">
                        <rect x="89.002" y="850.473" width="260.321" height="260.321" style="fill:rgb(0,177,255);"/>
                        <g transform="matrix(1,0,0,1,260.321,-260.321)">
                            <rect x="89.002" y="850.473" width="260.321" height="260.321" style="fill:rgb(0,177,255);"/>
                        </g>
                        <g transform="matrix(1,0,0,1,0,-260.321)">
                            <rect x="89.002" y="850.473" width="260.321" height="260.321" style="fill:white;"/>
                        </g>
                        <g transform="matrix(1,0,0,1,260.321,0)">
                            <rect x="89.002" y="850.473" width="260.321" height="260.321" style="fill:white;"/>
                        </g>
                    </g>
                </g>
            </g>
        </g>
    </g>
</svg>
