<?xml version="1.0" encoding="UTF-8" standalone="no"?>
<!DOCTYPE svg PUBLIC "-//W3C//DTD SVG 1.1//EN" "http://www.w3.org/Graphics/SVG/1.1/DTD/svg11.dtd">
<svg width="100%" height="100%" viewBox="0 0 1024 1024" version="1.1" xmlns="http://www.w3.org/2000/svg" xmlns:xlink="http://www.w3.org/1999/xlink" xml:space="preserve" xmlns:serif="http://www.serif.com/" style="fill-rule:evenodd;clip-rule:evenodd;stroke-linejoin:round;stroke-miterlimit:2;">
    <g id="STP">
        <g transform="matrix(2.73577,0,0,2.73577,-888.713,-888.713)">
            <circle cx="512" cy="512" r="174.402"/>
        </g>
        <g transform="matrix(2.08999,0,0,2.08999,-558.077,-558.077)">
            <circle cx="512" cy="512" r="174.402" style="fill:white;"/>
        </g>
        <g>
            <clipPath id="_clip1">
                <ellipse cx="512" cy="512" rx="324.018" ry="322.634"/>
            </clipPath>
            <g clip-path="url(#_clip1)">
                <g transform="matrix(1.16389,0,0,1.16389,-83.9129,-83.9129)">
                    <circle cx="512" cy="512" r="174.402" style="fill:rgb(255,0,0);"/>
                </g>
                <g transform="matrix(0.280697,0,0,1,368.283,0)">
                    <rect x="456.334" y="274.347" width="111.333" height="475.306" style="fill:white;"/>
                </g>
                <g transform="matrix(0.280697,0,0,1,439.631,0)">
                    <rect x="456.334" y="274.347" width="111.333" height="475.306" style="fill:white;"/>
                </g>
                <g transform="matrix(0.280697,0,0,1,155.437,0)">
                    <rect x="456.334" y="274.347" width="111.333" height="475.306" style="fill:white;"/>
                </g>
                <g transform="matrix(0.280697,0,0,1,510.978,0)">
                    <rect x="456.334" y="274.347" width="111.333" height="475.306" style="fill:white;"/>
                </g>
                <g transform="matrix(0.280697,0,0,1,226.785,0)">
                    <rect x="456.334" y="274.347" width="111.333" height="475.306" style="fill:white;"/>
                </g>
                <g transform="matrix(0.280697,0,0,1,582.326,0)">
                    <rect x="456.334" y="274.347" width="111.333" height="475.306" style="fill:white;"/>
                </g>
                <g transform="matrix(0.280697,0,0,1,298.132,0)">
                    <rect x="456.334" y="274.347" width="111.333" height="475.306" style="fill:white;"/>
                </g>
            </g>
        </g>
    </g>
</svg>
