<?xml version="1.0" encoding="UTF-8" standalone="no"?>
<!DOCTYPE svg PUBLIC "-//W3C//DTD SVG 1.1//EN" "http://www.w3.org/Graphics/SVG/1.1/DTD/svg11.dtd">
<svg width="100%" height="100%" viewBox="0 0 400 400" version="1.1" xmlns="http://www.w3.org/2000/svg" xmlns:xlink="http://www.w3.org/1999/xlink" xml:space="preserve" xmlns:serif="http://www.serif.com/" style="fill-rule:evenodd;clip-rule:evenodd;stroke-linejoin:round;stroke-miterlimit:2;">
    <path d="M200,-0C310.383,-0 400,89.617 400,200C400,310.383 310.383,400 200,400C89.617,400 -0,310.383 -0,200C-0,89.617 89.617,-0 200,-0ZM200,24.728C103.265,24.728 24.728,103.265 24.728,200C24.728,296.735 103.265,375.272 200,375.272C296.735,375.272 375.272,296.735 375.272,200C375.272,103.265 296.735,24.728 200,24.728Z" style="fill:white;"/>
    <path d="M337.09,276.02C310.321,324.154 258.937,356.751 200,356.751C141.063,356.751 89.679,324.154 62.91,276.02C96.707,256.38 135.087,243.774 176.041,240.212C146.86,230.24 125.853,202.568 125.853,170.027C125.853,129.105 159.077,95.88 200,95.88C240.923,95.88 274.147,129.105 274.147,170.027C274.147,202.568 253.14,230.24 223.959,240.212C264.913,243.774 303.293,256.38 337.09,276.02Z" style="fill:white;"/>
</svg>
