<?xml version="1.0" encoding="UTF-8" standalone="no"?>
<!DOCTYPE svg PUBLIC "-//W3C//DTD SVG 1.1//EN" "http://www.w3.org/Graphics/SVG/1.1/DTD/svg11.dtd">
<svg width="100%" height="100%" viewBox="0 0 400 400" version="1.1" xmlns="http://www.w3.org/2000/svg" xmlns:xlink="http://www.w3.org/1999/xlink" xml:space="preserve" xmlns:serif="http://www.serif.com/" style="fill-rule:evenodd;clip-rule:evenodd;stroke-linejoin:round;stroke-miterlimit:2;">
    <path d="M200,-0C310.383,-0 400,89.617 400,200C400,310.383 310.383,400 200,400C89.617,400 -0,310.383 -0,200C-0,89.617 89.617,-0 200,-0ZM200,24.728C103.265,24.728 24.728,103.265 24.728,200C24.728,296.735 103.265,375.272 200,375.272C296.735,375.272 375.272,296.735 375.272,200C375.272,103.265 296.735,24.728 200,24.728Z" style="fill:white;"/>
    <path d="M320.652,300.03C291.89,334.675 248.503,356.751 200,356.751C151.497,356.751 108.11,334.675 79.348,300.03C98.975,284.978 121.49,273.507 145.912,266.597C150.828,265.206 155.82,264 160.882,262.987C157.453,260.851 154.21,258.443 151.184,255.793C146.93,252.067 143.104,247.862 139.793,243.264C133.681,234.777 129.318,224.948 127.235,214.307C126.328,209.677 125.853,204.894 125.853,200C125.853,186.486 129.476,173.812 135.803,162.897C148.635,140.757 172.591,125.853 200,125.853C229.244,125.853 254.557,142.82 266.623,167.439C271.441,177.27 274.147,188.321 274.147,200C274.147,203.435 273.913,206.817 273.46,210.128C270.408,232.43 257.423,251.587 239.118,262.987C244.18,264 249.172,265.206 254.088,266.597C278.51,273.507 301.025,284.978 320.652,300.03ZM93.782,228.615C103.315,228.615 112.459,230.294 120.934,233.372C125.047,243.095 130.902,251.905 138.107,259.409C114.58,266.756 92.845,278.18 73.731,292.853C62.67,277.842 54.219,260.791 49.053,242.373C61.805,233.691 77.206,228.615 93.782,228.615ZM93.782,228.615C68.234,228.615 47.493,207.874 47.493,182.326C47.493,156.778 68.234,136.037 93.782,136.037C107.777,136.037 120.33,142.261 128.821,152.089C119.586,165.775 114.192,182.263 114.192,200C114.192,207.712 115.212,215.188 117.124,222.3C110.269,226.314 102.292,228.615 93.782,228.615ZM310.462,228.615C300.396,228.615 291.076,225.395 283.477,219.93C285.001,213.533 285.808,206.86 285.808,200C285.808,183.517 281.15,168.113 273.08,155.034C281.504,143.52 295.116,136.037 310.462,136.037C328.804,136.037 344.668,146.728 352.159,162.213C354.271,170.734 355.685,179.53 356.338,188.535C353.3,211.151 333.904,228.615 310.462,228.615ZM326.269,292.853C307.155,278.18 285.42,266.756 261.893,259.409C268.58,252.444 274.105,244.354 278.153,235.453C288.029,231.058 298.963,228.615 310.462,228.615C325.502,228.615 339.574,232.794 351.579,240.053C346.483,259.36 337.793,277.213 326.269,292.853Z" style="fill:white;"/>
</svg>
